<?xml version="1.0" encoding="utf-8"?>
<!-- Generator: Adobe Illustrator 15.1.0, SVG Export Plug-In . SVG Version: 6.00 Build 0)  -->
<!DOCTYPE svg PUBLIC "-//W3C//DTD SVG 1.1//EN" "http://www.w3.org/Graphics/SVG/1.1/DTD/svg11.dtd">
<svg version="1.1" id="Ebene_1" xmlns="http://www.w3.org/2000/svg" xmlns:xlink="http://www.w3.org/1999/xlink" x="0px" y="0px"
	 width="841.89px" height="248px" viewBox="-249.889 465.5 841.89 248" enable-background="new -249.889 465.5 841.89 248"
	 xml:space="preserve">
<g>
	<g>
		<path d="M-177.882,508.693l14.233-28.217l61.417,0.103c0,0,42.38,0.422,38.817,38.4c-1.945,20.797-14.624,27.693-22.991,32.427
			c-6.045,3.416-17.009,6.327-17.009,6.327l40.999,70.053h-47.229l-41.702-71.53c0,0,44.811,3.083,48.323-31.359
			c-1.184-15.429-14.195-15.8-22.498-16.203H-177.882z"/>
	</g>
	<g>
		<polygon points="-239.312,627.786 -201.506,556.287 -157.821,556.21 -193.97,627.786 		"/>
	</g>
	<g>
		<path fill="#CD1719" d="M-161.57,549.403c12.385-5.168,16.46-14.207,15.021-22.03c-2.687-14.605-20.118-15.283-30.744-11.444
			c-4.919,1.766-20.644,11.955-14.982,26.56C-188.827,551.381-173.928,554.54-161.57,549.403"/>
	</g>
	<g>
		<path d="M146.989,626.315h-29.029L86.934,571.34v54.976H61.691V508.604h36.066c14.33,0,25.07,2.77,32.216,8.31
			c7.132,5.553,10.714,13.907,10.714,25.069c0,8.093-2.457,15.014-7.356,20.746c-4.9,5.744-11.227,9.096-18.973,10.056
			L146.989,626.315z M86.934,558.858h3.768c10.216,0,16.971-1.112,20.253-3.345c3.275-2.239,4.913-6.143,4.913-11.682
			c0-5.821-1.759-9.954-5.278-12.403c-3.524-2.456-10.152-3.685-19.888-3.685h-3.768V558.858z"/>
	</g>
	<g>
		<rect x="161.919" y="508.597" width="25.236" height="117.718"/>
	</g>
	<g>
		<polygon points="213.997,626.315 213.997,508.597 283.411,508.597 283.411,529.925 239.233,529.925 239.233,554.074 
			283.411,554.074 283.411,575.394 239.233,575.394 239.233,604.987 283.411,604.987 283.411,626.315 		"/>
	</g>
	<g>
		<path d="M307.988,626.315V508.597h32.151c12.641,0,12.148,0.883,19.435,2.655c7.286,1.765,13.689,4.714,19.209,8.841
			c7.127,5.303,12.52,11.993,16.191,20.066c3.671,8.06,5.508,17.247,5.508,27.539c0,10.453-1.881,19.709-5.623,27.77
			c-3.742,8.079-9.243,14.732-16.472,19.984c-5.36,3.876-11.317,6.646-17.88,8.335c-6.557,1.683-5.713,2.527-18.353,2.527h-8.918
			H307.988L307.988,626.315z M333.224,604.987h3.531c13.171,0,22.767-3,28.792-9.007c6.021-5.994,9.033-15.506,9.033-28.523
			c0-12.974-3.013-22.467-9.033-28.493c-6.025-6.032-15.621-9.039-28.792-9.039h-3.531V604.987z"/>
	</g>
	<g>
		<polygon points="421.541,626.315 421.541,508.597 490.948,508.597 490.948,529.925 446.777,529.925 446.777,554.074 
			490.948,554.074 490.948,575.394 446.777,575.394 446.777,604.987 490.948,604.987 490.948,626.315 		"/>
	</g>
	<g>
		<polygon points="515.537,626.315 515.537,508.597 540.781,508.597 540.781,604.987 580.825,604.987 580.825,626.315 		"/>
	</g>
	<g>
		<rect x="-36.349" y="508.597" width="11.08" height="119.182"/>
	</g>
	<g>
		<rect x="-9.392" y="480.067" width="11.079" height="221.981"/>
	</g>
	<g>
		<rect x="16.964" y="480.067" width="11.073" height="147.719"/>
	</g>
</g>
</svg>
